<svg width="60" height="60" viewBox="0 0 60 60" fill="none" xmlns="http://www.w3.org/2000/svg">
<path d="M30.0001 4.99999C26.7486 4.88192 23.5067 5.42281 20.4696 6.5901C17.4325 7.75739 14.663 9.52697 12.3275 11.7924C9.99201 14.0578 8.13892 16.7722 6.87969 19.7724C5.62046 22.7725 4.98112 25.9964 5.00012 29.25C4.95822 32.6279 5.63667 35.976 6.99026 39.0712C8.34385 42.1663 10.3415 44.9375 12.8501 47.2C13.0493 47.3774 13.2114 47.5924 13.3273 47.8327C13.4431 48.0729 13.5104 48.3337 13.5251 48.6V53.05C13.5388 53.378 13.6321 53.6978 13.7969 53.9818C13.9617 54.2658 14.193 54.5054 14.471 54.6801C14.749 54.8548 15.0653 54.9592 15.3927 54.9845C15.72 55.0097 16.0486 54.955 16.3501 54.825L21.3501 52.65C21.7771 52.4887 22.2482 52.4887 22.6751 52.65C25.0387 53.288 27.4769 53.6075 29.9251 53.6C36.3699 53.6099 42.5546 51.0593 47.1188 46.5092C51.683 41.9591 54.2527 35.7823 54.2626 29.3375C54.2726 22.8927 51.7219 16.708 47.1718 12.1438C42.6217 7.57964 36.4449 5.00993 30.0001 4.99999ZM45.0001 23.65L37.6751 35.3C37.3989 35.7386 37.0347 36.1152 36.6055 36.4059C36.1764 36.6967 35.6916 36.8953 35.1819 36.9893C34.6721 37.0833 34.1483 37.0705 33.6437 36.9519C33.1391 36.8333 32.6646 36.6113 32.2501 36.3L26.4001 31.925C26.1405 31.7303 25.8247 31.625 25.5001 31.625C25.1756 31.625 24.8598 31.7303 24.6001 31.925L16.7001 37.925C16.4801 38.0947 16.2071 38.1809 15.9295 38.1684C15.6519 38.1558 15.3878 38.0453 15.184 37.8565C14.9802 37.6677 14.8499 37.4127 14.8162 37.1369C14.7825 36.8611 14.8477 36.5823 15.0001 36.35L22.3251 24.7C22.6014 24.2614 22.9656 23.8848 23.3947 23.594C23.8239 23.3033 24.3086 23.1046 24.8184 23.0107C25.3282 22.9167 25.8519 22.9294 26.3565 23.0481C26.8611 23.1667 27.3356 23.3887 27.7501 23.7L33.6001 28.075C33.8598 28.2697 34.1756 28.375 34.5001 28.375C34.8247 28.375 35.1405 28.2697 35.4001 28.075L43.3001 22.075C43.5201 21.9053 43.7932 21.8191 44.0707 21.8316C44.3483 21.8442 44.6124 21.9547 44.8162 22.1435C45.0201 22.3323 45.1504 22.5873 45.184 22.8631C45.2177 23.1389 45.1525 23.4177 45.0001 23.65Z" fill="white"/>
</svg>
