<svg width="60" height="60" viewBox="0 0 60 60" fill="none" xmlns="http://www.w3.org/2000/svg">
<path d="M30 21.875C27.8451 21.875 25.7785 22.731 24.2548 24.2548C22.731 25.7785 21.875 27.8451 21.875 30C21.875 32.1549 22.731 34.2215 24.2548 35.7452C25.7785 37.269 27.8451 38.125 30 38.125C32.1549 38.125 34.2215 37.269 35.7452 35.7452C37.269 34.2215 38.125 32.1549 38.125 30C38.125 27.8451 37.269 25.7785 35.7452 24.2548C34.2215 22.731 32.1549 21.875 30 21.875Z" fill="white"/>
<path fill-rule="evenodd" clip-rule="evenodd" d="M16.925 7.70501C25.6151 6.74176 34.385 6.74176 43.075 7.70501C47.8225 8.23501 51.65 11.9725 52.2075 16.7375C53.2381 25.5491 53.2381 34.4509 52.2075 43.2625C51.65 48.0275 47.8225 51.765 43.0775 52.2975C34.3867 53.261 25.6159 53.261 16.925 52.2975C12.1775 51.765 8.35004 48.0275 7.79254 43.265C6.76186 34.4525 6.76186 25.55 7.79254 16.7375C8.35004 11.9725 12.1775 8.23501 16.925 7.70501ZM42.5 15C41.837 15 41.2011 15.2634 40.7323 15.7322C40.2634 16.2011 40 16.837 40 17.5C40 18.1631 40.2634 18.7989 40.7323 19.2678C41.2011 19.7366 41.837 20 42.5 20C43.1631 20 43.799 19.7366 44.2678 19.2678C44.7366 18.7989 45 18.1631 45 17.5C45 16.837 44.7366 16.2011 44.2678 15.7322C43.799 15.2634 43.1631 15 42.5 15ZM18.125 30C18.125 26.8506 19.3762 23.8301 21.6031 21.6031C23.8301 19.3761 26.8506 18.125 30 18.125C33.1495 18.125 36.1699 19.3761 38.3969 21.6031C40.6239 23.8301 41.875 26.8506 41.875 30C41.875 33.1495 40.6239 36.1699 38.3969 38.3969C36.1699 40.6239 33.1495 41.875 30 41.875C26.8506 41.875 23.8301 40.6239 21.6031 38.3969C19.3762 36.1699 18.125 33.1495 18.125 30Z" fill="white"/>
</svg>
