<svg width="60" height="60" viewBox="0 0 60 60" fill="none" xmlns="http://www.w3.org/2000/svg">
<path d="M21.2 32.85H23.025V41.875H24.775V32.85H26.6V31.325H21.2V32.85ZM30.425 40C30.125 40.35 29.1 41.05 29.1 40.05V34.075H27.55V40.6C27.55 42.575 29.525 42.05 30.45 41.025V41.875H32V34.075H30.45V40H30.425ZM36.2 34.025C35.3 34.025 34.725 34.7 34.725 34.7V31.3H33.15V41.875H34.725V41.275C34.725 41.275 35.25 41.975 36.2 41.975C37.025 41.975 37.65 41.25 37.65 40.25V35.925C37.65 34.75 37.1 34.025 36.2 34.025ZM36.025 40.05C36.025 40.625 35.625 40.9 35.1 40.675C34.9582 40.6087 34.8308 40.5153 34.725 40.4V35.55C34.825 35.45 34.95 35.375 35.05 35.3C35.6 35.025 36.025 35.45 36.025 36.025V40.05ZM41.8 39.65C41.8 40.25 41.475 40.65 41.1 40.675C40.7 40.7 40.3 40.375 40.3 39.65V38.175H43.275V36.175C43.2826 35.8704 43.229 35.5675 43.1173 35.284C43.0057 35.0006 42.8383 34.7425 42.625 34.525C42.1949 34.1327 41.632 33.9182 41.05 33.925C40.5 33.925 39.925 34.1 39.475 34.45C39 34.825 38.7 35.4 38.7 36.175V39.675C38.7 40.375 38.925 40.925 39.275 41.325C39.7 41.775 40.275 42.025 40.875 42.05C41.6 42.075 42.375 41.775 42.825 41.15C43.1 40.775 43.275 40.275 43.275 39.675V39.275H41.8V39.65ZM40.3 36.175C40.3 35.75 40.55 35.25 41.025 35.25C41.5 35.25 41.8 35.7 41.8 36.175V36.975H40.3V36.175Z" fill="white"/>
<path d="M32.4251 7.5C29.4701 7.50016 26.5442 8.08234 23.8143 9.21328C21.0844 10.3442 18.6039 12.0018 16.5146 14.0913C14.4253 16.1809 12.768 18.6615 11.6374 21.3915C10.5067 24.1216 9.92488 27.0476 9.92505 30.0025C9.92521 32.9574 10.5074 35.8833 11.6383 38.6133C12.7693 41.3432 14.4268 43.8236 16.5164 45.9129C18.6059 48.0022 21.0866 49.6595 23.8166 50.7902C26.5466 51.9208 29.4726 52.5027 32.4275 52.5025C38.3953 52.5022 44.1184 50.1312 48.338 45.9112C52.5575 41.6911 54.9279 35.9677 54.9276 30C54.9272 24.0323 52.5562 18.3091 48.3362 14.0896C44.1162 9.87001 38.3928 7.49967 32.4251 7.5ZM36.3751 15.925H38.3751V22.625C38.3751 23.05 38.5751 23.05 38.6501 23.05C38.9501 23.05 39.4001 22.725 39.6251 22.5V15.9H41.625V24.75H39.6251V23.975C39.3501 24.225 39.0751 24.425 38.8001 24.575C38.4251 24.775 38.0751 24.85 37.7251 24.85C37.5334 24.8592 37.3421 24.8258 37.1649 24.7524C36.9877 24.6789 36.829 24.5671 36.7001 24.425C36.4751 24.15 36.3751 23.725 36.3751 23.2V15.925ZM30 18.25C30 16.875 31.125 15.75 32.5 15.75C33.8751 15.75 35 16.875 35 18.25V22.5C35 23.875 33.8751 25 32.5 25C31.125 25 30 23.875 30 22.5V18.25ZM24.8 12.875L26 17.275L27.225 12.875H29.5L27.15 19.825V24.75H24.925V19.825L22.5251 12.875H24.8ZM44.55 44.225C43.2751 45.475 32.475 45.5 32.475 45.5C32.475 45.5 21.7 45.475 20.4 44.225C19.125 42.975 19.125 36.75 19.125 36.7C19.125 36.675 19.125 30.45 20.4 29.175C21.675 27.925 32.475 27.9 32.475 27.9C32.475 27.9 43.25 27.925 44.55 29.175C45.8251 30.425 45.8501 36.65 45.8501 36.7C45.8501 36.7 45.85 42.95 44.55 44.225Z" fill="white"/>
<path d="M32.45 23.375C32.875 23.375 33.075 23.125 33.1 22.725V17.975C33.1 17.65 32.775 17.375 32.475 17.375C32.175 17.375 31.85 17.625 31.85 17.975V22.725C31.85 23.1 32.025 23.35 32.45 23.375Z" fill="white"/>
</svg>
